<svg xmlns="http://www.w3.org/2000/svg" width="109" height="32" viewBox="0 0 109 32">
    <defs>
        <filter id="osm00vyn2a">
            <feColorMatrix in="SourceGraphic" values="0 0 0 0 0.988235 0 0 0 0 0.988235 0 0 0 0 0.996078 0 0 0 1.000000 0"/>
        </filter>
    </defs>
    <g fill="none" fill-rule="evenodd">
        <g filter="url(#osm00vyn2a)" transform="translate(-32 -24)">
            <g fill="#FFF" fill-rule="nonzero">
                <g>
                    <path d="M41.362 13.673c0-3.685 2.627-6.303 6.228-6.303 3.65 0 6.229 2.618 6.229 6.303s-2.628 6.303-6.229 6.303c-3.6.048-6.228-2.618-6.228-6.303zm9.732 0c0-2.28-1.509-3.685-3.504-3.685s-3.455 1.454-3.455 3.685c0 2.23 1.509 3.685 3.455 3.685 1.995 0 3.504-1.406 3.504-3.685zM22.87 4.315c1.022 0 1.752-.776 1.752-1.842 0-.97-.73-1.697-1.751-1.697-1.022 0-1.752.776-1.752 1.745-.049 1.018.73 1.794 1.752 1.794zM7.153 19.442l2.336-5.478 2.336 5.478.048.049h2.19l.049-.049L18.88 8.194h-2.725l-3.211 7.515-2.093-4.945 1.07-2.57H9.198l-3.212 7.515-3.211-7.515H.049l4.768 11.248.05.049h2.189c.097 0 .097-.049.097-.049zM62.675 7.37c-3.6 0-6.229 2.618-6.229 6.303s2.628 5.866 6.229 5.866c1.314 0 2.579-.533 3.406-1.357v1.115c0 1.31-.34 2.182-1.022 2.812-.584.533-1.41.873-2.287.873-1.46 0-2.627-.824-3.163-2.182l-2.676.727c.876 2.425 3.066 3.976 5.79 3.976 2.19 0 4.04-.97 5.159-2.57.68-.97.973-2.181.973-3.345v-5.576c.097-4.024-2.53-6.642-6.18-6.642zm0 9.794c-1.995 0-3.455-1.406-3.455-3.588 0-2.182 1.509-3.588 3.455-3.588 1.995 0 3.504 1.406 3.504 3.588 0 2.182-1.509 3.588-3.504 3.588zM21.362 8.194L21.362 19.539 24.282 19.539 24.282 7.418zM35.084.824L35.084 19.539 38.004 19.539 38.004.048zM28.223.824L28.223 19.539 31.143 19.539 31.143.048z" transform="translate(32 24) translate(39.902 4.364)"/>
                </g>
                <path d="M30.267 8.533l-6.375 15.03-2.579.68-2.238-5.334 1.557-3.636 1.85 4.266 5.887-13.866C25.401 2.23 20.973 0 16.058 0 7.202 0 0 7.176 0 16s7.202 16 16.058 16 16.058-7.176 16.058-16c0-2.715-.681-5.236-1.849-7.467zm-14.452 15.03l-2.58.68-6.277-14.74h3.115l.048.097 4.283 9.988 4.282-10.085H21.8l-5.985 14.06z" transform="translate(32 24)"/>
            </g>
        </g>
    </g>
</svg>
