<svg width="109" height="32" viewBox="0 0 109 32" fill="none" xmlns="http://www.w3.org/2000/svg">
<path d="M81.2607 18.0364C81.2607 14.3516 83.8789 11.7334 87.4668 11.7334C91.1032 11.7334 93.6729 14.3516 93.6729 18.0364C93.6729 21.7213 91.0547 24.3395 87.4668 24.3395C83.8789 24.3879 81.2607 21.7213 81.2607 18.0364ZM90.9577 18.0364C90.9577 15.8061 89.4547 14.3516 87.4668 14.3516C85.4789 14.3516 84.0244 15.8061 84.0244 18.0364C84.0244 20.2667 85.5274 21.7213 87.4668 21.7213C89.4547 21.7213 90.9577 20.3152 90.9577 18.0364Z" fill="white"/>
<path d="M62.8365 8.6789C63.8547 8.6789 64.5819 7.90314 64.5819 6.88496C64.5819 5.91526 63.8547 5.18799 62.8365 5.18799C61.8183 5.18799 61.091 5.96375 61.091 6.93344C61.0425 7.90314 61.8183 8.6789 62.8365 8.6789Z" fill="white"/>
<path d="M47.1758 23.8061L49.5031 18.3273L51.8304 23.8061L51.8788 23.8546H54.0607L54.1091 23.8061L58.8607 12.5576H56.1455L52.9455 20.0728L50.8607 15.1273L51.9273 12.5576H49.2122L46.0607 20.0728L42.8607 12.5576H40.1455L44.897 23.8061L44.9455 23.8546H47.1273C47.1758 23.8061 47.1758 23.8061 47.1758 23.8061Z" fill="white"/>
<path d="M102.497 11.7334C98.9092 11.7334 96.291 14.3516 96.291 18.0364C96.291 21.7213 98.9092 23.9031 102.497 23.9031C103.806 23.9031 105.067 23.3698 105.891 22.5455V23.6607C105.891 24.9698 105.552 25.8425 104.921 26.4728C104.339 27.0061 103.515 27.297 102.643 27.297C101.188 27.297 100.024 26.4728 99.491 25.1152L96.8243 25.8425C97.6971 28.2182 99.8789 29.8182 102.643 29.8182C104.824 29.8182 106.667 28.8486 107.782 27.2486C108.461 26.2789 108.752 25.0667 108.752 23.9031V18.3758C108.752 14.3516 106.133 11.7334 102.497 11.7334ZM102.497 21.5273C100.509 21.5273 99.0547 20.1213 99.0547 17.9395C99.0547 15.7576 100.558 14.3516 102.497 14.3516C104.485 14.3516 105.988 15.7576 105.988 17.9395C105.988 20.1213 104.485 21.5273 102.497 21.5273Z" fill="white"/>
<path d="M61.3335 12.5575V23.903H64.2426V11.7817L61.3335 12.5575Z" fill="white"/>
<path d="M75.0063 5.18787V23.903H77.9154V4.41211L75.0063 5.18787Z" fill="white"/>
<path d="M68.1699 5.18787V23.903H71.079V4.41211L68.1699 5.18787Z" fill="white"/>
<path d="M20.5579 15.6122L19.1519 18.9091L21.3337 24.097L23.7094 23.4667L30.1094 8.4364C29.6246 7.51518 29.0428 6.64246 28.364 5.8667L22.4003 19.8788L20.5579 15.6122Z" fill="white"/>
<path d="M18.6668 9.6001L14.3517 19.8789L9.98805 9.6001H7.12744L13.285 24.0971L15.6608 23.4668L21.5274 9.6001H18.6668Z" fill="white"/>
<path d="M23.7091 23.4667L21.3333 24.097L19.1515 18.9091L20.5576 15.5636L22.4 19.8303L28.3636 5.7697C25.4061 2.27879 20.9455 0 16 0C7.17576 0 0 7.17576 0 16C0 24.8242 7.17576 32 16 32C24.8242 32 32 24.8242 32 16C32 13.2364 31.3212 10.6667 30.0606 8.38788L23.7091 23.4667ZM15.6606 23.4667L13.2848 24.097L7.12727 9.6H9.98788L14.3515 19.8788L18.7152 9.6H21.5758L15.6606 23.4667Z" fill="#3C6AF5"/>
</svg>
