<svg xmlns="http://www.w3.org/2000/svg" width="190" height="56" viewBox="0 0 190 56">
    <g fill="none" fill-rule="evenodd">
        <g fill-rule="nonzero">
            <g>
                <g fill="#000">
                    <path d="M72.098 23.927c0-6.448 4.58-11.03 10.857-11.03 6.362 0 10.858 4.582 10.858 11.03 0 6.449-4.58 11.03-10.858 11.03-6.276.085-10.857-4.581-10.857-11.03zm16.965 0c0-3.988-2.63-6.448-6.108-6.448-3.477 0-6.022 2.545-6.022 6.448 0 3.903 2.63 6.449 6.022 6.449 3.478 0 6.108-2.46 6.108-6.449zM39.866 7.552c1.781 0 3.054-1.358 3.054-3.225 0-1.697-1.273-2.97-3.054-2.97s-3.053 1.358-3.053 3.055c-.085 1.782 1.272 3.14 3.053 3.14zM12.469 34.024l4.071-9.588 4.072 9.588.084.085h3.817l.085-.085 8.313-19.685h-4.75l-5.599 13.152-3.647-8.655 1.866-4.497h-4.75l-5.598 13.152-5.598-13.152H.085l8.312 19.685.085.085H12.3c.17 0 .17-.085.17-.085zM109.25 12.897c-6.277 0-10.857 4.582-10.857 11.03 0 6.449 4.58 10.267 10.857 10.267 2.29 0 4.496-.933 5.938-2.376v1.952c0 2.29-.594 3.818-1.782 4.92-1.018.934-2.46 1.528-3.986 1.528-2.545 0-4.58-1.442-5.514-3.818l-4.665 1.273c1.527 4.242 5.344 6.957 10.094 6.957 3.817 0 7.04-1.697 8.99-4.497 1.188-1.697 1.697-3.818 1.697-5.854V24.52c.17-7.042-4.41-11.624-10.772-11.624zm0 17.14c-3.478 0-6.022-2.461-6.022-6.28 0-3.818 2.63-6.278 6.022-6.278 3.478 0 6.107 2.46 6.107 6.279 0 3.818-2.63 6.278-6.107 6.278zM37.237 14.339L37.237 34.194 42.326 34.194 42.326 12.982zM61.156 1.442L61.156 34.194 66.246 34.194 66.246.085zM49.196 1.442L49.196 34.194 54.286 34.194 54.286.085z" transform="translate(-855 -100) translate(855 100) translate(69.554 7.636)"/>
                </g>
                <g>
                    <g fill="#FFF">
                        <path d="M24.09 17.14l-2.46 5.77 3.816 8.993 4.157-1.103L40.799 4.497c-.848-1.612-1.866-3.14-3.053-4.497L27.312 24.606 24.09 17.14zM20.781 6.618L13.147 24.606 5.598 6.618.594 6.618 11.366 31.988 15.522 30.885 25.786 6.618z" transform="translate(-855 -100) translate(855 100) translate(11.875 10.182)"/>
                    </g>
                    <path fill="#4671FF" d="M41.478 41.067L37.32 42.17l-3.817-9.08 2.46-5.854 3.139 7.467L49.62 10.182C44.53 3.988 36.728 0 27.99 0 12.554 0 0 12.558 0 28s12.554 28 27.991 28c15.438 0 27.991-12.558 27.991-28 0-4.836-1.187-9.333-3.393-13.321L41.478 41.067zm-14.08 0L23.24 42.17 12.47 16.8h4.92l7.633 17.988L32.656 16.8h4.92L27.397 41.067z" transform="translate(-855 -100) translate(855 100)"/>
                </g>
            </g>
        </g>
    </g>
</svg>
