<svg width="32" height="32" viewBox="0 0 32 32" fill="none" xmlns="http://www.w3.org/2000/svg">
<path d="M20.5579 15.6122L19.1519 18.9091L21.3337 24.097L23.7094 23.4667L30.1094 8.4364C29.6246 7.51518 29.0428 6.64246 28.364 5.8667L22.4003 19.8788L20.5579 15.6122Z" fill="white"/>
<path d="M18.6668 9.6001L14.3517 19.8789L9.98805 9.6001H7.12744L13.285 24.0971L15.6608 23.4668L21.5274 9.6001H18.6668Z" fill="white"/>
<path d="M23.7091 23.4667L21.3333 24.097L19.1515 18.9091L20.5576 15.5636L22.4 19.8303L28.3636 5.7697C25.4061 2.27879 20.9455 0 16 0C7.17576 0 0 7.17576 0 16C0 24.8242 7.17576 32 16 32C24.8242 32 32 24.8242 32 16C32 13.2364 31.3212 10.6667 30.0606 8.38788L23.7091 23.4667ZM15.6606 23.4667L13.2848 24.097L7.12727 9.6H9.98788L14.3515 19.8788L18.7152 9.6H21.5758L15.6606 23.4667Z" fill="#3C6AF5"/>
</svg>
