<svg width="69" height="26" viewBox="0 0 69 26" fill="none" xmlns="http://www.w3.org/2000/svg">
<path d="M41.2607 14.0364C41.2607 10.3516 43.8789 7.7334 47.4668 7.7334C51.1032 7.7334 53.6729 10.3516 53.6729 14.0364C53.6729 17.7213 51.0547 20.3395 47.4668 20.3395C43.8789 20.3879 41.2607 17.7213 41.2607 14.0364ZM50.9577 14.0364C50.9577 11.8061 49.4547 10.3516 47.4668 10.3516C45.4789 10.3516 44.0244 11.8061 44.0244 14.0364C44.0244 16.2667 45.5274 17.7213 47.4668 17.7213C49.4547 17.7213 50.9577 16.3152 50.9577 14.0364Z" fill="white"/>
<path d="M22.8365 4.6789C23.8547 4.6789 24.5819 3.90314 24.5819 2.88496C24.5819 1.91526 23.8547 1.18799 22.8365 1.18799C21.8183 1.18799 21.091 1.96375 21.091 2.93344C21.0425 3.90314 21.8183 4.6789 22.8365 4.6789Z" fill="white"/>
<path d="M7.17581 19.8061L9.50308 14.3273L11.8304 19.8061L11.8788 19.8546H14.0607L14.1091 19.8061L18.8607 8.55762H16.1455L12.9455 16.0728L10.8607 11.1273L11.9273 8.55762H9.21217L6.06066 16.0728L2.86066 8.55762H0.145508L4.89702 19.8061L4.94551 19.8546H7.12732C7.17581 19.8061 7.17581 19.8061 7.17581 19.8061Z" fill="white"/>
<path d="M62.4971 7.7334C58.9092 7.7334 56.291 10.3516 56.291 14.0364C56.291 17.7213 58.9092 19.9031 62.4971 19.9031C63.8062 19.9031 65.0668 19.3698 65.891 18.5455V19.6607C65.891 20.9698 65.5516 21.8425 64.9213 22.4728C64.3395 23.0061 63.5153 23.297 62.6425 23.297C61.188 23.297 60.0243 22.4728 59.491 21.1152L56.8243 21.8425C57.6971 24.2182 59.8789 25.8182 62.6425 25.8182C64.8243 25.8182 66.6668 24.8486 67.7819 23.2486C68.4607 22.2789 68.7516 21.0667 68.7516 19.9031V14.3758C68.7516 10.3516 66.1334 7.7334 62.4971 7.7334ZM62.4971 17.5273C60.5092 17.5273 59.0547 16.1213 59.0547 13.9395C59.0547 11.7576 60.5577 10.3516 62.4971 10.3516C64.485 10.3516 65.988 11.7576 65.988 13.9395C65.988 16.1213 64.485 17.5273 62.4971 17.5273Z" fill="white"/>
<path d="M21.3335 8.5575V19.903H24.2426V7.78174L21.3335 8.5575Z" fill="white"/>
<path d="M35.0063 1.18787V19.903H37.9154V0.412109L35.0063 1.18787Z" fill="white"/>
<path d="M28.1699 1.18787V19.903H31.079V0.412109L28.1699 1.18787Z" fill="white"/>
</svg>
