<svg width="28" height="28" viewBox="0 0 28 28" fill="none" xmlns="http://www.w3.org/2000/svg">
<circle cx="13.9999" cy="14" r="11.6667" fill="white"/>
<rect x="9.33325" y="10.5" width="9.33333" height="2.33333" fill="#B0B1B4"/>
<path fill-rule="evenodd" clip-rule="evenodd" d="M13.9999 24.5C19.7989 24.5 24.4999 19.799 24.4999 14C24.4999 8.20099 19.7989 3.49998 13.9999 3.49998C8.20093 3.49998 3.49992 8.20099 3.49992 14C3.49992 19.799 8.20093 24.5 13.9999 24.5ZM13.9999 25.6666C20.4432 25.6666 25.6666 20.4433 25.6666 14C25.6666 7.55666 20.4432 2.33331 13.9999 2.33331C7.5566 2.33331 2.33325 7.55666 2.33325 14C2.33325 20.4433 7.5566 25.6666 13.9999 25.6666Z" fill="#D4D5D9"/>
<rect x="9.33325" y="15.1667" width="9.33333" height="2.33333" fill="#B0B1B4"/>
</svg>
