<svg xmlns="http://www.w3.org/2000/svg" width="32" height="32" viewBox="0 0 32 32">
    <g fill="none" fill-rule="evenodd">
        <g>
            <g>
                <g>
                    <g transform="translate(-804 -417) translate(435 220) translate(241 69) translate(128 128)">
                        <circle cx="16" cy="16" r="16" fill="#3C6AF5"/>
                        <path fill="#FFF" d="M11 9h10v2h4v12H7V11h4V9z"/>
                        <path fill="#3C6AF5" d="M9 13H10.5V14.5H9z"/>
                        <path fill="#3C6AF5" fill-rule="nonzero" d="M16 13c2.21 0 4 1.79 4 4s-1.79 4-4 4-4-1.79-4-4 1.79-4 4-4zm0 1c-1.657 0-3 1.343-3 3s1.343 3 3 3 3-1.343 3-3-1.343-3-3-3z"/>
                    </g>
                </g>
            </g>
        </g>
    </g>
</svg>
