<svg width="99" height="33" viewBox="0 0 99 33" fill="none" xmlns="http://www.w3.org/2000/svg">
<path d="M49 33L43 26L55 26L49 33Z" fill="#16171A"/>
<rect x="0.5" width="98" height="26" rx="3" fill="#16171A"/>
<path d="M17.8071 19H20.7611C23.8131 19 25.7731 17.264 25.7731 13.778C25.7731 10.278 23.8131 8.626 20.6491 8.626H17.8071V19ZM19.8791 17.334V10.292H20.5231C22.4551 10.292 23.6591 11.244 23.6591 13.778C23.6591 16.298 22.4551 17.334 20.5231 17.334H19.8791Z" fill="white"/>
<path d="M31.0493 19.196C32.0153 19.196 33.0093 18.86 33.7793 18.328L33.0793 17.068C32.5193 17.418 31.9593 17.614 31.3153 17.614C30.1533 17.614 29.3133 16.942 29.1453 15.654H33.9753C34.0313 15.472 34.0733 15.094 34.0733 14.702C34.0733 12.546 32.9533 10.964 30.7973 10.964C28.9353 10.964 27.1433 12.546 27.1433 15.08C27.1433 17.67 28.8513 19.196 31.0493 19.196ZM29.1173 14.282C29.2713 13.148 29.9993 12.56 30.8253 12.56C31.8333 12.56 32.3093 13.232 32.3093 14.282H29.1173Z" fill="white"/>
<path d="M37.7 19.196C38.19 19.196 38.526 19.112 38.764 19.014L38.512 17.488C38.372 17.516 38.316 17.516 38.232 17.516C38.036 17.516 37.826 17.362 37.826 16.886V7.828H35.768V16.802C35.768 18.258 36.272 19.196 37.7 19.196Z" fill="white"/>
<path d="M40.1841 19H42.2421V11.16H40.1841V19ZM41.2201 9.9C41.9201 9.9 42.4101 9.452 42.4101 8.766C42.4101 8.094 41.9201 7.646 41.2201 7.646C40.5061 7.646 40.0161 8.094 40.0161 8.766C40.0161 9.452 40.5061 9.9 41.2201 9.9Z" fill="white"/>
<path d="M46.2 19H48.58L51.198 11.16H49.224L48.076 15.066C47.866 15.836 47.656 16.648 47.446 17.446H47.376C47.166 16.648 46.956 15.836 46.746 15.066L45.598 11.16H43.526L46.2 19Z" fill="white"/>
<path d="M55.809 19.196C56.775 19.196 57.769 18.86 58.539 18.328L57.839 17.068C57.279 17.418 56.719 17.614 56.075 17.614C54.913 17.614 54.073 16.942 53.905 15.654H58.735C58.791 15.472 58.833 15.094 58.833 14.702C58.833 12.546 57.713 10.964 55.557 10.964C53.695 10.964 51.903 12.546 51.903 15.08C51.903 17.67 53.611 19.196 55.809 19.196ZM53.877 14.282C54.031 13.148 54.759 12.56 55.585 12.56C56.593 12.56 57.069 13.232 57.069 14.282H53.877Z" fill="white"/>
<path d="M60.5278 19H62.5858V14.324C63.0198 13.19 63.7618 12.784 64.3778 12.784C64.6998 12.784 64.9238 12.826 65.2038 12.91L65.5538 11.132C65.3158 11.034 65.0638 10.964 64.6298 10.964C63.8178 10.964 62.9778 11.524 62.4038 12.546H62.3618L62.2078 11.16H60.5278V19Z" fill="white"/>
<path d="M69.8774 19.196C70.8434 19.196 71.8374 18.86 72.6074 18.328L71.9074 17.068C71.3474 17.418 70.7874 17.614 70.1434 17.614C68.9814 17.614 68.1414 16.942 67.9734 15.654H72.8034C72.8594 15.472 72.9014 15.094 72.9014 14.702C72.9014 12.546 71.7814 10.964 69.6254 10.964C67.7634 10.964 65.9714 12.546 65.9714 15.08C65.9714 17.67 67.6794 19.196 69.8774 19.196ZM67.9454 14.282C68.0994 13.148 68.8274 12.56 69.6534 12.56C70.6614 12.56 71.1374 13.232 71.1374 14.282H67.9454Z" fill="white"/>
<path d="M77.3542 19.196C78.1662 19.196 78.9502 18.748 79.5242 18.188H79.5802L79.7342 19H81.4002V7.828H79.3562V10.586L79.4262 11.818C78.8662 11.3 78.3202 10.964 77.4382 10.964C75.7442 10.964 74.1482 12.532 74.1482 15.08C74.1482 17.656 75.4082 19.196 77.3542 19.196ZM77.8862 17.502C76.8502 17.502 76.2622 16.69 76.2622 15.066C76.2622 13.498 77.0042 12.658 77.8862 12.658C78.3762 12.658 78.8802 12.812 79.3562 13.246V16.69C78.8942 17.278 78.4322 17.502 77.8862 17.502Z" fill="white"/>
</svg>
