<svg width="79" height="33" viewBox="0 0 79 33" fill="none" xmlns="http://www.w3.org/2000/svg">
<path d="M39 33L33 26L45 26L39 33Z" fill="#16171A"/>
<rect x="10.5" width="58" height="26" rx="3" fill="#16171A"/>
<path d="M34.0922 17.236V14.548H37.7742V13.064H30.5642V9.676H37.6762V8.192H28.7022V14.548H32.2442V17.236H27.3442V18.748H39.0202V17.236H34.0922ZM47.9231 13.358C45.8791 12.812 44.9831 11.454 44.9551 10.11H47.5031V8.654H44.9551V7.268H43.1071V8.654H40.5871V10.11H43.1071C43.0791 11.566 42.1831 13.008 40.1251 13.582L41.0071 15.024C42.4771 14.576 43.4991 13.68 44.0591 12.546C44.6331 13.582 45.6271 14.408 47.0831 14.8L47.9231 13.358ZM41.7631 17.222H48.5251V20.218H50.3731V15.752H41.7631V17.222ZM52.0811 10.488H50.3731V7.31H48.5251V15.206H50.3731V12H52.0811V10.488Z" fill="white"/>
</svg>
