<svg width="111" height="33" viewBox="0 0 111 33" fill="none" xmlns="http://www.w3.org/2000/svg">
<path d="M55 33L49 26L61 26L55 33Z" fill="#16171A"/>
<rect x="0.5" width="110" height="26" rx="3" fill="#16171A"/>
<path d="M21.9194 19.196C24.6634 19.196 26.5534 17.138 26.5534 13.778C26.5534 10.418 24.6634 8.444 21.9194 8.444C19.1754 8.444 17.2854 10.404 17.2854 13.778C17.2854 17.138 19.1754 19.196 21.9194 19.196ZM21.9194 17.404C20.3794 17.404 19.3994 15.99 19.3994 13.778C19.3994 11.552 20.3794 10.222 21.9194 10.222C23.4594 10.222 24.4394 11.552 24.4394 13.778C24.4394 15.99 23.4594 17.404 21.9194 17.404Z" fill="white"/>
<path d="M28.4088 19H30.4668V13.61C31.0408 13.036 31.4468 12.728 32.0908 12.728C32.8608 12.728 33.1968 13.148 33.1968 14.366V19H35.2548V14.114C35.2548 12.14 34.5268 10.964 32.8328 10.964C31.7688 10.964 30.9708 11.524 30.2848 12.196H30.2428L30.0888 11.16H28.4088V19Z" fill="white"/>
<path d="M43.4195 19.196C44.1055 19.196 44.6515 19.042 45.0715 18.902L44.7355 17.404C44.5255 17.488 44.2175 17.572 43.9655 17.572C43.2655 17.572 42.9015 17.152 42.9015 16.256V12.784H44.8335V11.16H42.9015V9.046H41.1935L40.9555 11.16L39.7375 11.258V12.784H40.8435V16.256C40.8435 18.006 41.5575 19.196 43.4195 19.196Z" fill="white"/>
<path d="M46.4284 19H48.4864V13.61C49.0604 13.036 49.4664 12.728 50.1104 12.728C50.8804 12.728 51.2164 13.148 51.2164 14.366V19H53.2744V14.114C53.2744 12.14 52.5464 10.964 50.8524 10.964C49.7884 10.964 49.0184 11.524 48.3884 12.112L48.4864 10.642V7.828H46.4284V19Z" fill="white"/>
<path d="M58.7994 19.196C59.7654 19.196 60.7594 18.86 61.5294 18.328L60.8294 17.068C60.2694 17.418 59.7094 17.614 59.0654 17.614C57.9035 17.614 57.0634 16.942 56.8954 15.654H61.7254C61.7814 15.472 61.8234 15.094 61.8234 14.702C61.8234 12.546 60.7034 10.964 58.5474 10.964C56.6854 10.964 54.8934 12.546 54.8934 15.08C54.8934 17.67 56.6014 19.196 58.7994 19.196ZM56.8674 14.282C57.0214 13.148 57.7494 12.56 58.5754 12.56C59.5834 12.56 60.0594 13.232 60.0594 14.282H56.8674Z" fill="white"/>
<path d="M67.8381 19H70.3721L71.5061 13.876C71.6741 13.064 71.8141 12.266 71.9541 11.468H72.0101C72.1361 12.266 72.2901 13.064 72.4581 13.876L73.6201 19H76.1961L78.1141 8.626H76.1541L75.3281 13.694C75.1741 14.772 75.0201 15.878 74.8661 16.998H74.7961C74.5721 15.878 74.3621 14.758 74.1381 13.694L72.9481 8.626H71.1701L69.9661 13.694C69.7421 14.772 69.5181 15.878 69.3081 16.998H69.2521C69.0981 15.878 68.9301 14.786 68.7761 13.694L67.9501 8.626H65.8501L67.8381 19Z" fill="white"/>
<path d="M81.2276 19.196C82.1236 19.196 82.9076 18.748 83.5936 18.16H83.6496L83.7896 19H85.4696V14.422C85.4696 12.154 84.4476 10.964 82.4596 10.964C81.2276 10.964 80.1076 11.426 79.1836 12L79.9256 13.358C80.6536 12.938 81.3536 12.616 82.0816 12.616C83.0476 12.616 83.3836 13.204 83.4256 13.974C80.2616 14.31 78.9036 15.192 78.9036 16.872C78.9036 18.202 79.8276 19.196 81.2276 19.196ZM81.8996 17.586C81.2976 17.586 80.8636 17.32 80.8636 16.704C80.8636 16.004 81.5076 15.472 83.4256 15.234V16.816C82.9216 17.306 82.4876 17.586 81.8996 17.586Z" fill="white"/>
<path d="M88.253 22.15C90.003 22.15 90.843 21.086 91.529 19.238L94.315 11.16H92.341L91.263 14.8C91.081 15.528 90.885 16.284 90.703 17.012H90.633C90.409 16.256 90.213 15.5 89.975 14.8L88.729 11.16H86.657L89.709 18.86L89.569 19.322C89.345 20.008 88.897 20.512 88.099 20.512C87.917 20.512 87.693 20.456 87.553 20.414L87.175 21.996C87.483 22.094 87.791 22.15 88.253 22.15Z" fill="white"/>
</svg>
