<svg width="91" height="33" viewBox="0 0 91 33" fill="none" xmlns="http://www.w3.org/2000/svg">
<path d="M45 33L39 26L51 26L45 33Z" fill="#16171A"/>
<rect x="0.5" width="90" height="26" rx="3" fill="#16171A"/>
<path d="M21.7605 19.196C24.1545 19.196 25.5685 17.754 25.5685 16.06C25.5685 14.562 24.7425 13.764 23.4825 13.246L22.1245 12.672C21.2425 12.322 20.5145 12.056 20.5145 11.314C20.5145 10.628 21.0885 10.222 21.9985 10.222C22.8525 10.222 23.5385 10.53 24.1965 11.076L25.2465 9.774C24.4065 8.92 23.2025 8.444 21.9985 8.444C19.8985 8.444 18.4145 9.746 18.4145 11.44C18.4145 12.952 19.4645 13.792 20.5145 14.226L21.9005 14.814C22.8245 15.206 23.4545 15.444 23.4545 16.214C23.4545 16.942 22.8805 17.404 21.8025 17.404C20.8925 17.404 19.9125 16.942 19.1705 16.256L17.9805 17.684C18.9885 18.65 20.3745 19.196 21.7605 19.196Z" fill="white"/>
<path d="M27.2348 19H29.2928V13.61C29.8668 13.036 30.2728 12.728 30.9168 12.728C31.6868 12.728 32.0228 13.148 32.0228 14.366V19H34.0808V14.114C34.0808 12.14 33.3528 10.964 31.6588 10.964C30.5948 10.964 29.8248 11.524 29.1948 12.112L29.2928 10.642V7.828H27.2348V19Z" fill="white"/>
<path d="M36.1899 19H38.2479V11.16H36.1899V19ZM37.2259 9.9C37.9259 9.9 38.4159 9.452 38.4159 8.766C38.4159 8.094 37.9259 7.646 37.2259 7.646C36.5119 7.646 36.0219 8.094 36.0219 8.766C36.0219 9.452 36.5119 9.9 37.2259 9.9Z" fill="white"/>
<path d="M40.4418 22.01H42.4998V19.63L42.4298 18.342C43.0318 18.888 43.6898 19.196 44.3758 19.196C46.0978 19.196 47.7078 17.642 47.7078 14.954C47.7078 12.546 46.5598 10.964 44.6278 10.964C43.7878 10.964 42.9758 11.412 42.3178 11.972H42.2758L42.1218 11.16H40.4418V22.01ZM43.9138 17.502C43.4938 17.502 42.9898 17.348 42.4998 16.914V13.47C43.0318 12.924 43.5078 12.658 44.0398 12.658C45.1178 12.658 45.5938 13.484 45.5938 14.982C45.5938 16.69 44.8658 17.502 43.9138 17.502Z" fill="white"/>
<path d="M49.4516 22.01H51.5096V19.63L51.4396 18.342C52.0416 18.888 52.6996 19.196 53.3856 19.196C55.1076 19.196 56.7176 17.642 56.7176 14.954C56.7176 12.546 55.5696 10.964 53.6376 10.964C52.7976 10.964 51.9856 11.412 51.3276 11.972H51.2856L51.1316 11.16H49.4516V22.01ZM52.9236 17.502C52.5036 17.502 51.9996 17.348 51.5096 16.914V13.47C52.0416 12.924 52.5176 12.658 53.0496 12.658C54.1276 12.658 54.6036 13.484 54.6036 14.982C54.6036 16.69 53.8756 17.502 52.9236 17.502Z" fill="white"/>
<path d="M61.8774 19.196C62.8434 19.196 63.8374 18.86 64.6074 18.328L63.9074 17.068C63.3474 17.418 62.7874 17.614 62.1434 17.614C60.9814 17.614 60.1414 16.942 59.9734 15.654H64.8034C64.8594 15.472 64.9014 15.094 64.9014 14.702C64.9014 12.546 63.7814 10.964 61.6254 10.964C59.7634 10.964 57.9714 12.546 57.9714 15.08C57.9714 17.67 59.6794 19.196 61.8774 19.196ZM59.9454 14.282C60.0994 13.148 60.8274 12.56 61.6534 12.56C62.6614 12.56 63.1374 13.232 63.1374 14.282H59.9454Z" fill="white"/>
<path d="M69.3541 19.196C70.1661 19.196 70.9501 18.748 71.5241 18.188H71.5801L71.7341 19H73.4001V7.828H71.3561V10.586L71.4261 11.818C70.8661 11.3 70.3201 10.964 69.4381 10.964C67.7441 10.964 66.1481 12.532 66.1481 15.08C66.1481 17.656 67.4081 19.196 69.3541 19.196ZM69.8861 17.502C68.8501 17.502 68.2621 16.69 68.2621 15.066C68.2621 13.498 69.0041 12.658 69.8861 12.658C70.3761 12.658 70.8801 12.812 71.3561 13.246V16.69C70.8941 17.278 70.4321 17.502 69.8861 17.502Z" fill="white"/>
</svg>
