<svg width="79" height="33" viewBox="0 0 79 33" fill="none" xmlns="http://www.w3.org/2000/svg">
<path d="M39 33L33 26L45 26L39 33Z" fill="#16171A"/>
<rect x="10.5" width="58" height="26" rx="3" fill="#16171A"/>
<path d="M28.3242 12.462C30.7322 12.336 32.3562 11.748 33.1542 10.796C33.9662 11.748 35.5902 12.336 37.9842 12.462L38.5022 11.104C35.9122 10.992 34.6522 10.376 34.2882 9.648H37.8722V8.318H34.0782V7.296H32.2302V8.318H28.4642V9.648H32.0202C31.6702 10.376 30.4102 10.992 27.8202 11.104L28.3242 12.462ZM38.9782 14.142V12.784H27.3722V14.142H32.2442V14.912H28.6742V16.242H35.7582V16.858H28.6882V20.106H37.9142V18.776H30.5222V18.104H37.5782V14.912H34.0922V14.142H38.9782ZM44.9551 12.084H42.4211V10.796H44.9551V12.084ZM46.7751 7.87H44.9551V9.41H42.4211V7.87H40.6011V13.526H46.7751V7.87ZM43.7091 17.866H50.3731V14.366H41.8611V15.766H48.5531V16.55H41.8751V20.106H50.7511V18.678H43.7091V17.866ZM50.3731 9.802V7.31H48.5251V13.862H50.3731V11.3H52.0671V9.802H50.3731Z" fill="white"/>
</svg>
