<svg width="79" height="33" viewBox="0 0 79 33" fill="none" xmlns="http://www.w3.org/2000/svg">
<path d="M39 33L33 26L45 26L39 33Z" fill="#16171A"/>
<rect x="10.5" width="58" height="26" rx="3" fill="#16171A"/>
<path d="M28.1002 8.052V9.522H32.0202C31.7262 11.23 30.1722 12.63 27.4002 13.386L28.1282 14.814C31.8802 13.778 33.9802 11.454 33.9802 8.052H28.1002ZM31.4602 16.494H36.3042V18.608H31.4602V16.494ZM29.6402 20.05H38.1242V15.038H29.6402V20.05ZM36.2762 7.324V10.362H34.0502V11.86H36.2762V14.506H38.1242V7.324H36.2762ZM51.4651 11.888C48.5391 11.482 47.0551 9.802 47.0551 8.304V7.688H45.0811V8.304C45.0811 9.816 43.6111 11.482 40.6711 11.888L41.3711 13.372C43.6251 13.036 45.2491 11.986 46.0751 10.6C46.9011 11.986 48.5111 13.036 50.7651 13.372L51.4651 11.888ZM51.8851 14.324H40.2371V15.822H45.0951V20.218H46.9431V15.822H51.8851V14.324Z" fill="white"/>
</svg>
