<svg xmlns="http://www.w3.org/2000/svg" width="24" height="24" viewBox="0 0 24 24">
    <defs>
        <filter id="4up9u8kzda">
            <feColorMatrix in="SourceGraphic" values="0 0 0 0 1.000000 0 0 0 0 1.000000 0 0 0 0 1.000000 0 0 0 0.700000 0"/>
        </filter>
    </defs>
    <g fill="none" fill-rule="evenodd">
        <g>
            <g>
                <g filter="url(#4up9u8kzda)" transform="translate(-32 -467) translate(0 104) translate(0 350)">
                    <g>
                        <g fill="#3C6AF5" fill-rule="nonzero">
                            <path d="M9 1.5c4.142 0 7.5 3.358 7.5 7.5v6.75H18v1.5H0v-1.5h1.5V9c0-4.142 3.358-7.5 7.5-7.5zM9 3C5.762 3 3.122 5.566 3.004 8.775L3 9v6.75h12V9c0-3.238-2.566-5.878-5.775-5.996L9 3z" transform="translate(32 13) translate(3 2)"/>
                            <path d="M12.75 15.75h-7.5v.75c0 2.071 1.679 3.75 3.75 3.75 2.071 0 3.75-1.679 3.75-3.75v-.75zm-1.629 1.5l-.048.126c-.341.807-1.141 1.374-2.073 1.374l-.154-.005c-.865-.059-1.597-.607-1.92-1.37l-.048-.125h4.243zM9.75 0L9.75 3 8.25 3 8.25 0z" transform="translate(32 13) translate(3 2)"/>
                        </g>
                    </g>
                </g>
            </g>
        </g>
    </g>
</svg>
