<svg xmlns="http://www.w3.org/2000/svg" width="24" height="24" viewBox="0 0 24 24">
    <defs>
        <filter id="8y14b2suxa">
            <feColorMatrix in="SourceGraphic" values="0 0 0 0 1.000000 0 0 0 0 1.000000 0 0 0 0 1.000000 0 0 0 0.700000 0"/>
        </filter>
    </defs>
    <g fill="none" fill-rule="evenodd">
        <g>
            <g>
                <g filter="url(#8y14b2suxa)" transform="translate(-32 -167) translate(0 104) translate(0 50)">
                    <g>
                        <path fill="#3C6AF5" fill-rule="nonzero" d="M6.97 15.97l1.06 1.06L5 20.06l-2.03-2.03 1.06-1.06.97.969 1.97-1.97zM20 17.25v1.5h-9v-1.5h9zM6.97 9.97l1.06 1.06L5 14.06l-2.03-2.03 1.06-1.06.97.969 1.97-1.97zM20 11.25v1.5h-9v-1.5h9zM6.97 3.97l1.06 1.06L5 8.06 2.97 6.03l1.06-1.06.97.969 1.97-1.97zM20 5.25v1.5h-9v-1.5h9z" transform="translate(32 13)"/>
                    </g>
                </g>
            </g>
        </g>
    </g>
</svg>
