<svg xmlns="http://www.w3.org/2000/svg" width="24" height="24" viewBox="0 0 24 24">
    <defs>
        <filter id="t923zrjc4a">
            <feColorMatrix in="SourceGraphic" values="0 0 0 0 1.000000 0 0 0 0 1.000000 0 0 0 0 1.000000 0 0 0 0.700000 0"/>
        </filter>
    </defs>
    <g fill="none" fill-rule="evenodd">
        <g>
            <g>
                <g filter="url(#t923zrjc4a)" transform="translate(-32 -217) translate(0 104) translate(0 100)">
                    <g>
                        <path fill="#3C6AF5" fill-rule="nonzero" d="M12 2c4.418 0 8 3.582 8 8 0 1.767-.96 3.966-2.88 6.595l-.442.591c-.23.3-.47.604-.723.914l-.522.627-.553.641-.585.655c-.7.773-1.465 1.575-2.295 2.406-.83-.831-1.595-1.633-2.295-2.406l-.585-.655-.553-.64-.522-.628C5.348 14.795 4 12.095 4 10c0-4.418 3.582-8 8-8zm0 1.5c-3.59 0-6.5 2.91-6.5 6.5 0 2.036 1.764 5.1 5.34 9.04l.612.665.319.339.229.239.23-.239.646-.692c3.67-3.986 5.527-7.099 5.62-9.188L18.5 10c0-3.59-2.91-6.5-6.5-6.5zm0 2.75c2.071 0 3.75 1.679 3.75 3.75 0 2.071-1.679 3.75-3.75 3.75-2.071 0-3.75-1.679-3.75-3.75 0-2.071 1.679-3.75 3.75-3.75zm0 1.5c-1.243 0-2.25 1.007-2.25 2.25s1.007 2.25 2.25 2.25 2.25-1.007 2.25-2.25S13.243 7.75 12 7.75z" transform="translate(32 13)"/>
                    </g>
                </g>
            </g>
        </g>
    </g>
</svg>
