<svg xmlns="http://www.w3.org/2000/svg" width="24" height="24" viewBox="0 0 24 24">
    <defs>
        <filter id="apxvc7efja">
            <feColorMatrix in="SourceGraphic" values="0 0 0 0 1.000000 0 0 0 0 1.000000 0 0 0 0 1.000000 0 0 0 0.700000 0"/>
        </filter>
    </defs>
    <g fill="none" fill-rule="evenodd">
        <g>
            <g>
                <g>
                    <g filter="url(#apxvc7efja)" transform="translate(-32 -517) translate(0 104) translate(0 350) translate(0 50)">
                        <g>
                            <path fill="#3C6AF5" fill-rule="nonzero" d="M11 14.25c2.55 0 4.631 2.01 4.745 4.533l.005.217v2.75h-1.5V19c0-1.733-1.356-3.15-3.066-3.245L11 15.75H7c-1.733 0-3.15 1.356-3.245 3.066L3.75 19v2.75h-1.5V19c0-2.55 2.01-4.631 4.533-4.745L7 14.25h4zm6.461-.014l.726.188c2.016.52 3.449 2.288 3.557 4.354l.006.222v2.75h-1.5v-2.746c-.008-1.41-.924-2.647-2.254-3.075l-.183-.053-.727-.187.375-1.453zM15.46 2.217l.727.186c2.102.539 3.572 2.432 3.572 4.602 0 2.095-1.37 3.932-3.357 4.541l-.215.06-.727.187-.372-1.454.727-.186c1.438-.368 2.444-1.664 2.444-3.148 0-1.423-.924-2.672-2.267-3.098l-.177-.05-.727-.186.372-1.454zM9 2.25c2.623 0 4.75 2.127 4.75 4.75S11.623 11.75 9 11.75 4.25 9.623 4.25 7 6.377 2.25 9 2.25zm0 1.5C7.205 3.75 5.75 5.205 5.75 7S7.205 10.25 9 10.25 12.25 8.795 12.25 7 10.795 3.75 9 3.75z" transform="translate(32 13)"/>
                        </g>
                    </g>
                </g>
            </g>
        </g>
    </g>
</svg>
