<?xml version="1.0" encoding="utf-8"?>
<!-- Generator: Adobe Illustrator 25.1.0, SVG Export Plug-In . SVG Version: 6.00 Build 0)  -->
<svg width="38px" version="1.1" id="Layer_1" xmlns="http://www.w3.org/2000/svg" xmlns:xlink="http://www.w3.org/1999/xlink" x="0px" y="0px"
	 viewBox="0 0 38 50" style="enable-background:new 0 0 38 50;" xml:space="preserve">
<style type="text/css">
	.st0{fill-rule:evenodd;clip-rule:evenodd;fill:#0046E5;}
	.st1{fill-rule:evenodd;clip-rule:evenodd;fill:#3C6AF5;}
	.st2{fill-rule:evenodd;clip-rule:evenodd;fill:#FCFCFE;}
</style>
<path class="st0" d="M5.6,5.1c-6.7,6.2-7.4,17.7-1.8,24.7L19,50l15.2-20.2c5.7-7,4.9-18.5-1.8-24.7C25-1.7,13-1.7,5.6,5.1z"/>
<path class="st1" d="M7,6.6c-6,5.5-6.7,16-1.6,22.2L19,47l13.6-18.2C37.7,22.6,37,12.1,31,6.6C24.4,0.5,13.6,0.5,7,6.6z"/>
<path class="st2" d="M24,17.5c-0.6,1.2-1.7,2.1-3.3,2.6l-0.9-1.5c2.2-0.6,3.2-2.1,3.2-3.6h-2.7v-1.5h2.7V12h2v1.4h2.7V15h-2.7
	c0,1.4,1,2.8,3.2,3.4l-0.9,1.5C25.6,19.4,24.6,18.6,24,17.5z M18.5,22.4V24H6v-1.6h5.3v-2.8H7.5V13h9.6v1.5H9.5V18h7.7v1.5h-4v2.8
	H18.5z M30.7,20.3v-3.3h1.8v-1.6h-1.8V12h-2v8.2H30.7z M30.7,20.8v4.7h-2v-3.1h-7.3v-1.5H30.7z"/>
</svg>
