<?xml version="1.0" encoding="utf-8"?>
<!-- Generator: Adobe Illustrator 25.1.0, SVG Export Plug-In . SVG Version: 6.00 Build 0)  -->
<svg width="38px" version="1.1" id="Layer_1" xmlns="http://www.w3.org/2000/svg" xmlns:xlink="http://www.w3.org/1999/xlink" x="0px" y="0px"
	 viewBox="0 0 38 50" style="enable-background:new 0 0 38 50;" xml:space="preserve">
<style type="text/css">
	.st0{fill-rule:evenodd;clip-rule:evenodd;fill:#F28400;}
	.st1{fill-rule:evenodd;clip-rule:evenodd;fill:#FBA000;}
	.st2{fill-rule:evenodd;clip-rule:evenodd;fill:#FCFCFE;}
</style>
<path class="st0" d="M5.6,5.1c-6.7,6.2-7.4,17.7-1.8,24.7L19,50l15.2-20.2c5.7-7,4.9-18.5-1.8-24.7C25-1.7,13-1.7,5.6,5.1z"/>
<path class="st1" d="M7,6.6c-6,5.5-6.7,16-1.6,22.2L19,47l13.6-18.2C37.7,22.6,37,12.1,31,6.6C24.4,0.5,13.6,0.5,7,6.6z"/>
<path class="st2" d="M17.7,16l-0.5,1.4c-2.5-0.1-4.2-0.7-5.1-1.7c-0.8,1-2.5,1.6-5.1,1.7L6.5,16c2.7-0.1,4-0.8,4.4-1.5H7.1v-1.4h4
	V12H13v1.1h4v1.4h-3.8C13.7,15.2,15,15.9,17.7,16z M17.1,24v1.4H7.4V22h7.4v-0.6H7.4V20h3.8v-0.8H6v-1.4h12.2v1.4h-5.1V20h3.7v3.3
	H9.3V24H17.1z M30.2,18.9v-2.7H32v-1.6h-1.8V12h-1.9v6.9H30.2z M26.4,12.6v5.9h-6.5v-5.9h1.9v1.6h2.7v-1.6H26.4z M24.5,17h-2.7v-1.3
	h2.7V17z M30.6,23.9v1.5h-9.3v-3.7h7v-0.8h-7v-1.5h8.9v3.7h-7v0.8H30.6z"/>
</svg>
