<?xml version="1.0" encoding="utf-8"?>
<!-- Generator: Adobe Illustrator 25.1.0, SVG Export Plug-In . SVG Version: 6.00 Build 0)  -->
<svg width="38px" version="1.1" id="Layer_1" xmlns="http://www.w3.org/2000/svg" xmlns:xlink="http://www.w3.org/1999/xlink" x="0px" y="0px"
	 viewBox="0 0 38 50" style="enable-background:new 0 0 38 50;" xml:space="preserve">
<style type="text/css">
	.st0{fill-rule:evenodd;clip-rule:evenodd;fill:#319BA3;}
	.st1{fill-rule:evenodd;clip-rule:evenodd;fill:#39C1CF;}
	.st2{fill-rule:evenodd;clip-rule:evenodd;fill:#FCFCFE;}
</style>
<path class="st0" d="M5.6,5.1c-6.7,6.2-7.4,17.7-1.8,24.7L19,50l15.2-20.2c5.7-7,4.9-18.5-1.8-24.7C25-1.7,13-1.7,5.6,5.1z"/>
<path class="st1" d="M7,6.6c-6,5.5-6.7,16-1.6,22.2L19,47l13.6-18.2C37.7,22.6,37,12.1,31,6.6C24.4,0.5,13.6,0.5,7,6.6z"/>
<path class="st2" d="M17.3,12v7.5h-1.9v-2.8H13v-1.6h2.3V12H17.3z M12.9,12.8c0,3.6-2.2,6-6.2,7.1L6,18.4c2.9-0.8,4.6-2.3,4.9-4.1
	H6.7v-1.5H12.9z M17.3,25.4v-5.3H8.4v5.3H17.3z M10.3,23.8h5.1v-2.2h-5.1V23.8z M30.6,18.4l0.7-1.6c-3.1-0.4-4.7-2.2-4.7-3.8v-0.6
	h-2.1V13c0,1.6-1.6,3.3-4.7,3.8l0.7,1.6c2.4-0.4,4.1-1.5,5-2.9C26.6,16.9,28.3,18,30.6,18.4z M26.6,20.9v4.6h-1.9v-4.6h-5.1v-1.6
	h12.3v1.6H26.6z"/>
</svg>
